<svg width="50" height="50" viewBox="0 0 50 50" fill="none" xmlns="http://www.w3.org/2000/svg">
<g clip-path="url(#clip0_1256_7741)">
<path fill-rule="evenodd" clip-rule="evenodd" d="M28.5673 24.7245C28.5677 25.4299 28.3589 26.1196 27.9672 26.7064C27.5756 27.2931 27.0187 27.7506 26.367 28.0208C25.7154 28.291 24.9983 28.3619 24.3063 28.2245C23.6144 28.0871 22.9787 27.7476 22.4797 27.2489C21.9808 26.7502 21.6409 26.1147 21.5031 25.4229C21.3654 24.731 21.4359 24.0138 21.7058 23.3621C21.9757 22.7103 22.4328 22.1532 23.0193 21.7612C23.6058 21.3692 24.2954 21.16 25.0009 21.16C25.9458 21.1619 26.8516 21.538 27.52 22.206C28.1883 22.874 28.5649 23.7795 28.5673 24.7245ZM30.4921 24.7245C30.4921 23.639 30.1702 22.5779 29.5672 21.6753C28.9642 20.7728 28.1071 20.0692 27.1043 19.6537C26.1015 19.2382 24.998 19.1294 23.9334 19.341C22.8687 19.5526 21.8907 20.0751 21.123 20.8425C20.3553 21.6099 19.8323 22.5876 19.6202 23.6522C19.4082 24.7168 19.5165 25.8203 19.9316 26.8233C20.3467 27.8263 21.0498 28.6837 21.9521 29.2871C22.8545 29.8905 23.9154 30.2128 25.0009 30.2133C25.7221 30.2144 26.4365 30.0732 27.1031 29.7978C27.7696 29.5224 28.3753 29.1182 28.8854 28.6083C29.3955 28.0985 29.8 27.493 30.0757 26.8265C30.3514 26.16 30.4929 25.4457 30.4921 24.7245ZM31.9945 19.0125C31.9945 18.759 31.9193 18.5112 31.7785 18.3005C31.6377 18.0897 31.4375 17.9254 31.2033 17.8284C30.9692 17.7314 30.7115 17.7061 30.4629 17.7555C30.2143 17.805 29.9859 17.927 29.8067 18.1063C29.6275 18.2855 29.5053 18.5138 29.4559 18.7625C29.4064 19.0111 29.4318 19.2688 29.5288 19.5029C29.6258 19.7371 29.7901 19.9373 30.0009 20.0781C30.2116 20.2189 30.4594 20.2941 30.7129 20.2941C30.8813 20.2945 31.0481 20.2617 31.2038 20.1975C31.3594 20.1333 31.5009 20.0389 31.6199 19.9199C31.739 19.8008 31.8335 19.6594 31.8977 19.5038C31.962 19.3482 31.9949 19.1814 31.9945 19.013V19.0125ZM25.0009 15.9482C26.5609 15.9482 29.9065 15.8229 31.3129 16.3802C31.7716 16.5647 32.1883 16.8401 32.538 17.1896C32.8878 17.5392 33.1633 17.9558 33.3481 18.4144C33.9049 19.8213 33.7801 23.1664 33.7801 24.725C33.7801 26.2835 33.9049 29.6287 33.3481 31.0355C33.1634 31.4941 32.8878 31.9107 32.5381 32.2602C32.1884 32.6097 31.7717 32.8849 31.3129 33.0693C29.9065 33.6266 26.5609 33.5013 25.0009 33.5013C23.4409 33.5013 20.1001 33.6266 18.6889 33.0693C18.2302 32.8857 17.8137 32.6108 17.4646 32.2612C17.1156 31.9115 16.8413 31.4945 16.6585 31.0355C16.1017 29.6287 16.2265 26.2835 16.2265 24.725C16.2265 23.1664 16.1017 19.8213 16.6585 18.4144C16.8414 17.9554 17.1156 17.5384 17.4647 17.1887C17.8137 16.839 18.2302 16.5639 18.6889 16.3802C20.1001 15.8229 23.4409 15.9482 25.0009 15.9482ZM35.7001 24.7245C35.7001 23.2475 35.7145 21.785 35.6329 20.3085C35.5465 18.5949 35.1577 17.0767 33.9049 15.8229C32.6521 14.5691 31.1305 14.1789 29.4169 14.0949C27.9433 14.0114 26.4793 14.0253 25.0009 14.0253C23.5225 14.0253 22.0633 14.0114 20.5849 14.0949C18.8713 14.1784 17.3545 14.5687 16.1017 15.8229C14.8489 17.0771 14.4553 18.5949 14.3737 20.3085C14.2873 21.785 14.3017 23.2475 14.3017 24.7245C14.3017 26.2014 14.2873 27.6635 14.3737 29.1405C14.4553 30.8536 14.8441 32.3723 16.1017 33.6261C17.3593 34.8799 18.8713 35.2701 20.5849 35.3541C22.0633 35.4376 23.5273 35.4237 25.0009 35.4237C26.4745 35.4237 27.9433 35.4376 29.4169 35.3541C31.1305 35.2706 32.6473 34.8803 33.9049 33.6261C35.1625 32.3719 35.5465 30.8536 35.6329 29.1405C35.7145 27.6635 35.7001 26.2 35.7001 24.7245Z" fill="white"/>
</g>
<rect x="1" y="1" width="48" height="48" stroke="white" stroke-miterlimit="0" stroke-linejoin="bevel"/>
<defs>
<clipPath id="clip0_1256_7741">
<rect x="1" y="1" width="48" height="48" fill="white"/>
</clipPath>
</defs>
</svg>
