<svg width="24" height="24" viewBox="0 0 24 24" fill="none" xmlns="http://www.w3.org/2000/svg">
<path d="M12.0001 0C7.58878 0 4 3.52589 4 7.85985C4 12.0251 11.2703 23.2956 11.5798 23.7733C11.6713 23.9145 11.8298 24 12.0001 24C12.1703 24 12.3288 23.9145 12.4202 23.7733C12.7297 23.2956 20 12.025 20 7.85985C20 3.52589 16.4112 0 12.0001 0ZM12.0001 22.5858C11.3421 21.5395 10.0068 19.3734 8.68454 16.9733C6.27177 12.5937 4.99646 9.44233 4.99646 7.85985C4.99641 4.06604 8.13825 0.979592 12.0001 0.979592C15.8618 0.979592 19.0036 4.06604 19.0036 7.85985C19.0036 9.44233 17.7282 12.5937 15.3155 16.9733C13.9933 19.3733 12.658 21.5395 12.0001 22.5858Z" fill="#096D78"/>
<path d="M12 4C9.79439 4 8 5.57014 8 7.50007C8 9.42996 9.79439 11 12 11C14.2056 11 16 9.42996 16 7.50007C16 5.57014 14.2056 4 12 4ZM12 10.0526C10.3752 10.0526 9.0532 8.90756 9.0532 7.50002C9.0532 6.09245 10.3752 4.94727 12 4.94727C13.6248 4.94727 14.9468 6.09245 14.9468 7.50002C14.9468 8.90756 13.6249 10.0526 12 10.0526Z" fill="#096D78"/>
</svg>
