<svg width="226" height="35" viewBox="0 0 226 35" fill="none" xmlns="http://www.w3.org/2000/svg">
<path d="M1.19209e-07 29V0.999998H6.52L18.08 20.04H14.64L25.96 0.999998H32.48L32.56 29H25.24L25.2 12.08H26.44L18 26.24H14.48L5.8 12.08H7.28V29H1.19209e-07ZM35.7156 29L48.0756 0.999998H55.8756L68.2756 29H60.0356L50.3556 4.88H53.4756L43.7956 29H35.7156ZM42.4756 23.56L44.5156 17.72H58.1956L60.2356 23.56H42.4756ZM89.1644 29L81.2844 15.68L87.6444 11.92L98.0844 29H89.1644ZM71.3244 29V0.999998H79.2044V29H71.3244ZM76.9244 18.28V11.88H87.0844V18.28H76.9244ZM88.4044 15.84L81.0844 15.04L89.6844 0.999998H98.0044L88.4044 15.84ZM114.109 29.56C111.895 29.56 109.842 29.2133 107.949 28.52C106.082 27.8 104.455 26.7867 103.069 25.48C101.709 24.1733 100.642 22.64 99.8688 20.88C99.0954 19.0933 98.7088 17.1333 98.7088 15C98.7088 12.8667 99.0954 10.92 99.8688 9.16C100.642 7.37333 101.709 5.82667 103.069 4.52C104.455 3.21333 106.082 2.21333 107.949 1.52C109.842 0.799998 111.895 0.439998 114.109 0.439998C116.695 0.439998 119.002 0.893332 121.029 1.8C123.082 2.70667 124.789 4.01333 126.149 5.72L121.109 10.28C120.202 9.21333 119.202 8.4 118.109 7.84C117.042 7.28 115.842 7 114.509 7C113.362 7 112.309 7.18667 111.349 7.56C110.389 7.93333 109.562 8.48 108.869 9.2C108.202 9.89333 107.669 10.7333 107.269 11.72C106.895 12.7067 106.709 13.8 106.709 15C106.709 16.2 106.895 17.2933 107.269 18.28C107.669 19.2667 108.202 20.12 108.869 20.84C109.562 21.5333 110.389 22.0667 111.349 22.44C112.309 22.8133 113.362 23 114.509 23C115.842 23 117.042 22.72 118.109 22.16C119.202 21.6 120.202 20.7867 121.109 19.72L126.149 24.28C124.789 25.96 123.082 27.2667 121.029 28.2C119.002 29.1067 116.695 29.56 114.109 29.56ZM129.727 29V0.999998H136.247L147.807 20.04H144.367L155.687 0.999998H162.207L162.287 29H154.967L154.927 12.08H156.167L147.727 26.24H144.207L135.527 12.08H137.007V29H129.727ZM175.522 11.84H188.522V17.76H175.522V11.84ZM176.082 22.88H190.722V29H168.242V0.999998H190.202V7.12H176.082V22.88ZM213.714 25.56V7.28H205.674L205.554 10.32C205.501 11.9467 205.394 13.4667 205.234 14.88C205.101 16.2933 204.901 17.5867 204.634 18.76C204.394 19.9333 204.061 20.9467 203.634 21.8C203.234 22.6267 202.741 23.2667 202.154 23.72L193.714 22.72C194.648 22.7467 195.408 22.44 195.994 21.8C196.608 21.1333 197.088 20.2133 197.434 19.04C197.808 17.8667 198.074 16.48 198.234 14.88C198.421 13.28 198.554 11.5333 198.634 9.64L198.954 0.999998H221.514V25.56H213.714ZM192.874 34.64V22.72H225.314V34.64H218.074V29H200.154V34.64H192.874Z" fill="#075760"/>
</svg>
