<svg width="24" height="24" viewBox="0 0 24 24" fill="none" xmlns="http://www.w3.org/2000/svg">
<g clip-path="url(#clip0_1302_7748)">
<path d="M12 0C5.37259 0 0 5.37259 0 12C0 18.6274 5.37259 24 12 24C18.6274 24 24 18.6274 24 12C23.9915 5.37613 18.6239 0.00849421 12 0ZM12.5148 22.9447V20.834C12.5148 20.5497 12.2843 20.3192 12 20.3192C11.7157 20.3192 11.4852 20.5497 11.4852 20.834V22.9447C5.84035 22.6752 1.32484 18.1597 1.05534 12.5148H3.16602C3.45032 12.5148 3.68082 12.2843 3.68082 12C3.68082 11.7157 3.45032 11.4852 3.16602 11.4852H1.05534C1.32484 5.84035 5.84035 1.32484 11.4852 1.05534V3.16602C11.4852 3.45032 11.7157 3.68082 12 3.68082C12.2843 3.68082 12.5148 3.45032 12.5148 3.16602V1.05534C18.1597 1.32484 22.6752 5.84035 22.9447 11.4852H20.834C20.5497 11.4852 20.3192 11.7157 20.3192 12C20.3192 12.2843 20.5497 12.5148 20.834 12.5148H20.8391H22.9498C22.6801 18.1615 18.1616 22.6777 12.5148 22.9447Z" fill="#096D78"/>
<path d="M16.8552 17.093L12.0139 11.9145V6.53332C12.0139 6.23879 11.7869 6 11.5069 6C11.227 6 11 6.23879 11 6.53332V12.1332C11.0006 12.2731 11.0534 12.4072 11.147 12.5065L16.1303 17.8397C16.3263 18.0503 16.6474 18.0539 16.8476 17.8477C17.0478 17.6415 17.0512 17.3036 16.8552 17.093Z" fill="#096D78"/>
</g>
<defs>
<clipPath id="clip0_1302_7748">
<rect width="24" height="24" fill="white"/>
</clipPath>
</defs>
</svg>
