<svg viewBox="0 0 24 24" fill="none" xmlns="http://www.w3.org/2000/svg">
<path d="M2.99935 17.2681C2.98734 17.1749 3.00756 17.0803 3.05665 17.0002C3.13304 16.7227 3.75376 16.4261 4.01159 16.3208C4.73735 15.9094 5.5013 15.5075 6.19841 15.0674C6.53264 14.8856 6.96237 14.4741 7.34435 14.4741C8.1274 14.4741 9.25424 16.8088 9.97044 16.8088C10.3593 16.7209 10.7264 16.5549 11.0495 16.3208C13.276 15.1285 15.0953 13.2956 16.2731 11.0582C16.526 10.7425 16.7025 10.3724 16.7887 9.97693C16.7887 9.26887 14.4587 8.13022 14.4587 7.34561C14.4587 6.96287 14.8693 6.53229 15.0507 6.19739C15.49 5.49889 15.8624 4.73341 16.2731 4.00621C16.4068 3.75743 16.7028 3.13548 16.9797 3.04936C17.049 3.00915 17.1294 2.99237 17.2089 3.00152C17.823 3.0373 18.4267 3.17639 18.9947 3.41296C19.5871 3.76576 20.0596 4.28928 20.3507 4.91521C20.7659 5.6446 20.9893 6.46772 21 7.30733C20.9043 8.46842 20.6104 9.60442 20.1311 10.6659C19.8551 11.4529 19.4933 12.2071 19.052 12.9145C17.4463 15.3604 15.3643 17.4563 12.9308 19.0765C12.2178 19.498 11.4664 19.8505 10.6867 20.1291C9.62732 20.6093 8.49357 20.9039 7.3348 20.9998C6.48727 21.0073 5.65205 20.7964 4.90924 20.3874C4.28455 20.0958 3.76207 19.6223 3.40998 19.0287C3.17714 18.4685 3.03839 17.8736 2.99935 17.2681V17.2681Z" fill="#096D78"/>
</svg>
