<svg width="50" height="50" viewBox="0 0 50 50" fill="none" xmlns="http://www.w3.org/2000/svg">
<g clip-path="url(#clip0_1256_7742)">
<path fill-rule="evenodd" clip-rule="evenodd" d="M38.3338 19.4863C38.3338 19.4863 38.1369 18.929 36.9225 19.0826L32.9145 19.1105C32.7326 19.085 32.5472 19.114 32.3817 19.194C32.2203 19.294 32.0983 19.4466 32.0362 19.626C31.6088 20.7028 31.1101 21.75 30.5434 22.7604C28.7626 25.7969 28.0377 25.9644 27.7449 25.769C27.0633 25.337 27.241 24.0142 27.241 23.0666C27.241 20.1132 27.6873 18.8873 26.3673 18.5671C25.7504 18.4266 25.1181 18.3658 24.4858 18.3862C23.0506 18.3722 21.8361 18.3862 21.1545 18.7222C20.6937 18.9454 20.3481 19.4465 20.5545 19.4743C21.0103 19.5202 21.4328 19.7337 21.7401 20.0734C22.0138 20.642 22.1518 21.2664 22.1434 21.8974C22.297 25.3663 21.5865 25.7978 21.5865 25.7978C21.0441 26.0906 20.0985 25.603 18.7017 22.7335C18.1658 21.7685 17.6866 20.7731 17.2665 19.7522C17.1995 19.5759 17.0848 19.4215 16.9353 19.3063C16.7527 19.1763 16.5424 19.0905 16.321 19.0558L12.5049 19.0836C12.3609 19.0683 12.2154 19.084 12.078 19.1297C11.9405 19.1753 11.8145 19.2498 11.7082 19.3481C11.6416 19.4491 11.6053 19.567 11.6036 19.688C11.6019 19.8089 11.6348 19.9278 11.6986 20.0306C14.6794 27.0386 18.0777 30.5484 18.0777 30.5484C18.0777 30.5484 21.1833 33.7942 24.7065 33.5724H26.3097C26.584 33.558 26.845 33.4497 27.0489 33.2657C27.2 33.0609 27.2731 32.8091 27.2553 32.5553C27.2313 30.4102 28.2345 30.0895 28.2345 30.0895C29.2089 29.7833 30.4618 32.1655 31.7962 33.0847C31.7962 33.0847 32.8137 33.7812 33.5817 33.6281L37.1482 33.5724C39.0298 33.5585 38.1369 31.998 38.1369 31.998C38.0649 31.8727 37.6233 30.9118 35.4777 28.9193C33.2457 26.8438 33.5386 27.1783 36.241 23.5841C37.8874 21.3948 38.5402 20.0561 38.3338 19.4863Z" fill="currentColor"/>
</g>
<rect x="1" y="1" width="48" height="48" stroke="currentColor" stroke-miterlimit="0" stroke-linejoin="bevel"/>
<defs>
<clipPath id="clip0_1256_7742">
<rect x="1" y="1" width="48" height="48" fill="currentColor"/>
</clipPath>
</defs>
</svg>
